<svg width="255" height="69" viewBox="0 0 255 69" fill="none" xmlns="http://www.w3.org/2000/svg">
<g clip-path="url(#clip0_11996_94)">
<path d="M111.419 2C111.419 0.895431 112.314 0 113.419 0H141.419C142.524 0 143.419 0.895431 143.419 2V30C143.419 31.1046 142.524 32 141.419 32H113.419C112.314 32 111.419 31.1046 111.419 30V2Z" fill="#0278FE"/>
<path d="M143.419 6H111.419V8H143.419V6Z" fill="#2A2C2F"/>
<path d="M124.419 6H122.419V32H124.419V6Z" fill="#2A2C2F"/>
<path d="M118.731 71.7442L119.569 68.9601H124.37L125.208 71.7442H129.47L124.669 57.1987H119.271L114.47 71.7442H118.731ZM120.464 66.0055L121.913 61.2044H122.027L123.476 66.0055H120.464Z" fill="white"/>
<path d="M130.871 71.7442H134.82V66.943H136.183L138.74 71.7442H143.03L140.075 66.318C141.624 65.5723 142.547 64.159 142.547 62.1419C142.547 59.0453 140.381 57.1987 137.149 57.1987H130.871V71.7442ZM134.82 63.8749V60.3521H136.212C137.597 60.3521 138.428 60.8919 138.428 62.1419C138.428 63.3848 137.597 63.8749 136.212 63.8749H134.82Z" fill="white"/>
<path d="M143.833 60.3805H148.208V71.7442H152.1V60.3805H156.475V57.1987H143.833V60.3805Z" fill="white"/>
<path d="M171.391 62H175.382C175.077 59.0809 172.428 57 168.99 57C165.07 57 161.888 59.6988 161.888 64.5C161.888 69.1022 164.772 71.9431 169.019 71.9431C172.826 71.9431 175.553 69.6136 175.553 65.6363V63.6193H169.104V66.4318H171.746C171.711 67.696 170.816 68.5056 169.047 68.5056C167.002 68.5056 165.951 67 165.951 64.4431C165.951 61.9218 167.087 60.4375 169.076 60.4375C170.311 60.4375 171.15 61.0056 171.391 62Z" fill="white"/>
<path d="M180.723 71.7442L181.561 68.9601H186.363L187.201 71.7442H191.462L186.661 57.1987H181.263L176.462 71.7442H180.723ZM182.456 66.0055L183.905 61.2044H184.019L185.468 66.0055H182.456Z" fill="white"/>
<path d="M192.863 71.7442H202.693V68.5624H196.812V57.1987H192.863V71.7442Z" fill="white"/>
<path d="M204.289 71.7442H214.118V68.5624H208.238V57.1987H204.289V71.7442Z" fill="white"/>
<path d="M215.715 71.7442H226.169V68.5624H219.663V66.0624H225.658V62.8805H219.663V60.3805H226.197V57.1987H215.715V71.7442Z" fill="white"/>
<path d="M228.156 71.7442H232.105V66.943H233.468L236.025 71.7442H240.315L237.36 66.318C238.909 65.5723 239.832 64.159 239.832 62.1419C239.832 59.0453 237.666 57.1987 234.434 57.1987H228.156V71.7442ZM232.105 63.8749V60.3521H233.497C234.882 60.3521 235.713 60.8919 235.713 62.1419C235.713 63.3848 234.882 63.8749 233.497 63.8749H232.105Z" fill="white"/>
<path d="M240.235 57.1987L245.576 67.1703V71.7442H249.496V67.1703L254.837 57.1987H250.434L247.593 63.1078H247.479L244.639 57.1987H240.235Z" fill="white"/>
<path d="M109.056 57.1987V71.7441H105.76L100.505 64.1021H100.42V71.7441H96.4707V57.1987H99.823L104.993 64.8123H105.107V57.1987H109.056Z" fill="white"/>
<path d="M84.0303 71.7441V57.1987H94.5132V60.3805H87.9791V62.8805H93.9734V66.0623H87.9791V68.5623H94.4848V71.7441H84.0303Z" fill="white"/>
<path d="M69.9023 60.3805V57.1987H82.5443V60.3805H78.1694V71.7441H74.2773V60.3805H69.9023Z" fill="white"/>
<path d="M57.8584 71.7441V57.1987H68.3413V60.3805H61.8073V62.8805H67.8016V66.0623H61.8073V68.5623H68.3129V71.7441H57.8584Z" fill="white"/>
<path d="M46.4321 71.7441V57.1987H50.381V68.5623H56.2617V71.7441H46.4321Z" fill="white"/>
<path d="M33.3071 71.7441V57.1987H39.5855C40.6651 57.1987 41.6097 57.4118 42.4193 57.8379C43.229 58.2641 43.8587 58.863 44.3085 59.6348C44.7583 60.4066 44.9832 61.3086 44.9832 62.3408C44.9832 63.3824 44.7512 64.2844 44.2872 65.0467C43.8279 65.809 43.1816 66.3961 42.3483 66.8081C41.5197 67.22 40.5514 67.426 39.4435 67.426H35.6935V64.3578H38.648C39.112 64.3578 39.5074 64.2773 39.8341 64.1163C40.1655 63.9506 40.4189 63.7162 40.594 63.4132C40.774 63.1102 40.8639 62.7527 40.8639 62.3408C40.8639 61.9241 40.774 61.569 40.594 61.2754C40.4189 60.9771 40.1655 60.7499 39.8341 60.5936C39.5074 60.4326 39.112 60.3521 38.648 60.3521H37.256V71.7441H33.3071Z" fill="white"/>
<path d="M31.4362 57.1987V71.7441H27.4873V57.1987H31.4362Z" fill="white"/>
<path d="M14.1279 71.7441V57.1987H20.4063C21.4859 57.1987 22.4305 57.3952 23.2401 57.7882C24.0498 58.1812 24.6795 58.747 25.1293 59.4857C25.5791 60.2243 25.804 61.1097 25.804 62.1419C25.804 63.1836 25.572 64.0619 25.108 64.7768C24.6487 65.4918 24.0024 66.0316 23.1691 66.3961C22.3405 66.7607 21.3722 66.943 20.2643 66.943H16.5143V63.8748H19.4688C19.9328 63.8748 20.3282 63.818 20.6549 63.7044C20.9863 63.586 21.2397 63.399 21.4148 63.1433C21.5948 62.8876 21.6847 62.5538 21.6847 62.1419C21.6847 61.7252 21.5948 61.3867 21.4148 61.1263C21.2397 60.8611 20.9863 60.667 20.6549 60.5439C20.3282 60.416 19.9328 60.3521 19.4688 60.3521H18.0768V71.7441H14.1279ZM22.6506 65.068L26.287 71.7441H21.9972L18.4461 65.068H22.6506Z" fill="white"/>
<path d="M0 60.3805V57.1987H12.642V60.3805H8.26702V71.7441H4.37499V60.3805H0Z" fill="white"/>
</g>
<defs>
<clipPath id="clip0_11996_94">
<rect width="254.837" height="68.9431" fill="white"/>
</clipPath>
</defs>
</svg>
